<svg id="Layer_1" enable-background="new 0 0 512 512" height="512" viewBox="0 0 512 512" width="512" xmlns="http://www.w3.org/2000/svg"><g><path d="m143.533 160.667h-31.358c-25.847 0-47.471 20.484-47.902 46.328-.441 26.4 20.827 47.939 47.127 47.939h32.133c8.284 0 15-6.716 15-15v-64.267c0-8.285-6.716-15-15-15z" fill="#e19682"/><path d="m368.467 160.667h31.358c25.847 0 47.471 20.484 47.902 46.328.441 26.4-20.827 47.939-47.127 47.939h-32.133c-8.284 0-15-6.716-15-15v-64.267c0-8.285 6.716-15 15-15z" fill="#c36e64"/><path d="m361.759 301.553-64.267-32.133c-25.981-12.994-57.002-12.994-82.983-.001l-64.268 32.134c-4.649 2.324-10.172 2.076-14.594-.657s-7.114-7.561-7.114-12.76v-145.67c0-43.708 35.559-79.267 79.267-79.267h96.4c43.708 0 79.267 35.559 79.267 79.267v145.67c0 5.199-2.692 10.027-7.114 12.76-4.427 2.736-9.949 2.98-14.594.657z" fill="#ffbea0"/><path d="m297.492 269.42 64.267 32.133c4.645 2.322 10.167 2.079 14.594-.657 4.422-2.733 7.114-7.561 7.114-12.76v-145.67c0-43.708-35.559-79.267-79.267-79.267h-48.2v196.474c14.251.001 28.501 3.25 41.492 9.747z" fill="#e19682"/><path d="m477.327 488.649c-11.812-17.709-27.86-32.584-46.414-43.021l-103.293-58.102c-4.645-2.613-10.327-2.564-14.926.125-4.601 2.69-7.428 7.619-7.428 12.948 0 27.166-22.101 49.267-49.267 49.267s-49.267-22.101-49.267-49.267c0-5.329-2.827-10.258-7.428-12.948-4.599-2.689-10.281-2.738-14.926-.125l-103.291 58.102c-18.554 10.437-34.603 25.312-46.414 43.021-1.649 2.462-2.539 5.369-2.539 8.351 0 8.284 6.716 15 15 15h417.732c8.284 0 15-6.716 15-15 0-2.982-.889-5.889-2.539-8.351z" fill="#00e6ff"/><path d="m479.866 497c0-2.982-.89-5.889-2.539-8.351-11.812-17.709-27.86-32.584-46.414-43.021l-103.293-58.102c-4.645-2.613-10.327-2.564-14.926.125-4.601 2.69-7.428 7.619-7.428 12.948 0 27.166-22.101 49.267-49.267 49.267v62.134h208.866c8.285 0 15.001-6.716 15.001-15z" fill="#00a5ff"/><path d="m320.267 345.434h-128.534c-8.284 0-15 6.716-15 15v40.166c0 43.778 35.489 79.267 79.267 79.267s79.267-35.489 79.267-79.267v-40.167c0-8.284-6.716-14.999-15-14.999z" fill="#e19682"/><path d="m368.467 127.467h.01z" fill="#0a141e"/><circle clip-rule="evenodd" cx="207.8" cy="191.733" fill="#283741" fill-rule="evenodd" r="15"/><circle clip-rule="evenodd" cx="304.2" cy="191.733" fill="#0a141e" fill-rule="evenodd" r="15"/><path d="m368.467 127.467h.01z" fill="#0a141e"/><path d="m383.467 79.267c0-43.708-35.559-79.267-79.267-79.267h-96.4c-43.708 0-79.267 35.559-79.267 79.267v63.2h15.017c34.042 0 66.047-13.257 90.121-37.33 8.996-8.997 16.481-19.102 22.329-30.007 5.848 10.905 13.333 21.011 22.329 30.008 24.074 24.072 56.079 37.329 90.138 37.329h15.017z" fill="#283741"/><path d="m368.467 142.467h15.017l-.017-63.2c0-43.708-35.559-79.267-79.267-79.267h-48.2v75.13c5.848 10.905 13.333 21.011 22.329 30.008 24.074 24.072 56.079 37.329 90.138 37.329z" fill="#0a141e"/><path d="m335.267 400.599v-40.167c0-8.284-6.716-15-15-15h-64.267v134.435c43.778 0 79.267-35.491 79.267-79.268z" fill="#c36e64"/><path d="m256 390.516c-24.377 0-48.753-5.555-70.974-16.665-22.36-11.182-56.492-35.595-56.492-85.717 0-5.682 3.21-10.875 8.292-13.417l64.267-32.133c34.382-17.194 75.436-17.194 109.818.001l64.265 32.132c5.082 2.541 8.292 7.735 8.292 13.417 0 50.18-34.208 74.572-56.491 85.716-22.223 11.111-46.601 16.666-70.977 16.666z" fill="#f0f5fa"/><path d="m383.467 288.134c0-5.682-3.21-10.875-8.292-13.417l-64.265-32.132c-17.191-8.598-36.05-12.896-54.91-12.896v160.827c24.377 0 48.755-5.555 70.976-16.666 22.283-11.144 56.491-35.535 56.491-85.716z" fill="#dfe3e9"/></g></svg>