<svg id="Layer_1" enable-background="new 0 0 512 512" height="512" viewBox="0 0 512 512" width="512" xmlns="http://www.w3.org/2000/svg"><g><path d="m80.935 238.867h350.124c4.799 0 9.308-2.296 12.131-6.177l38.662-53.158c2.136-2.937 3.307-6.521 3.041-10.143-.457-6.24-4.625-11.372-10.335-13.226l-59.526-19.336c-7.062-2.294-11.807-8.845-11.807-16.301v-62.191c0-3.626-1.151-7.209-3.483-9.986-4.029-4.798-10.431-6.507-16.148-4.654l-59.53 19.33c-7.065 2.298-14.763-.207-19.146-6.231l-36.791-50.618c-2.822-3.881-7.331-6.176-12.13-6.176s-9.308 2.295-12.13 6.176l-36.791 50.618c-4.384 6.024-12.081 8.529-19.146 6.231l-59.53-19.33c-5.717-1.853-12.119-.145-16.148 4.654-2.332 2.777-3.483 6.36-3.483 9.986v62.191c0 7.456-4.745 14.007-11.807 16.301l-59.194 19.228c-3.453 1.122-6.505 3.333-8.419 6.418-3.299 5.318-2.942 11.923.59 16.779l38.866 53.438c2.822 3.881 7.332 6.177 12.13 6.177z" fill="#283741"/><path d="m484.893 169.389c-.457-6.24-4.625-11.372-10.334-13.226l-59.526-19.336c-7.062-2.294-11.807-8.845-11.807-16.301v-62.191c0-3.626-1.151-7.209-3.483-9.986-4.029-4.798-10.431-6.507-16.148-4.654l-59.53 19.33c-7.065 2.298-14.763-.207-19.146-6.231l-36.792-50.618c-2.822-3.881-7.331-6.176-12.13-6.176v238.867h175.062c4.799 0 9.308-2.296 12.131-6.177l38.662-53.158c2.136-2.937 3.307-6.521 3.041-10.143z" fill="#0a141e"/><path d="m477.344 488.678c-12.112-18.169-29.082-32.392-49.068-41.129l-102.001-44.626c-4.637-2.028-9.986-1.582-14.222 1.189s-6.79 7.492-6.79 12.554v16.067c0 27.166-22.101 49.267-49.267 49.267s-49.267-22.101-49.267-49.267v-16.067c0-5.062-2.553-9.783-6.79-12.554-4.236-2.771-9.585-3.217-14.222-1.189l-101.999 44.625c-19.986 8.738-36.956 22.96-49.068 41.129-4.596 6.893-2.733 16.206 4.16 20.802 2.557 1.705 5.448 2.521 8.307 2.521h417.761c2.859 0 5.75-.816 8.307-2.521 6.892-4.595 8.755-13.908 4.159-20.801z" fill="#465a64"/><path d="m473.185 509.479c6.893-4.596 8.755-13.909 4.16-20.802-12.112-18.169-29.082-32.392-49.068-41.129l-102.001-44.626c-4.637-2.028-9.986-1.582-14.222 1.189s-6.79 7.492-6.79 12.554v16.067c0 27.166-22.101 49.267-49.267 49.267v30.001h208.881c2.859 0 5.75-.816 8.307-2.521z" fill="#283741"/><path d="m320.264 377.567h-128.533c-8.284 0-15 6.716-15 15v40.167c0 43.778 35.489 79.267 79.267 79.267s79.267-35.489 79.267-79.267v-40.167c-.001-8.284-6.717-15-15.001-15z" fill="#ffbeb9"/><path d="m335.264 432.732v-40.167c0-8.284-6.716-15-15-15h-64.267v134.435c43.778 0 79.267-35.49 79.267-79.268z" fill="#ffa0aa"/><path d="m143.53 192.8h-31.358c-25.847 0-47.471 20.484-47.902 46.328-.441 26.4 20.827 47.939 47.127 47.939h32.133c8.284 0 15-6.716 15-15v-64.267c0-8.284-6.715-15-15-15z" fill="#ffbeb9"/><path d="m368.464 192.8h31.358c25.847 0 47.471 20.484 47.902 46.328.441 26.4-20.827 47.939-47.127 47.939h-32.133c-8.284 0-15-6.716-15-15v-64.267c0-8.284 6.716-15 15-15z" fill="#ffa0aa"/><path d="m361.756 333.683-64.267-32.133c-25.981-12.994-57.002-12.994-82.983-.001l-64.268 32.134c-4.649 2.324-10.172 2.076-14.594-.657s-7.114-7.561-7.114-12.76v-96.4c0-43.708 35.559-79.267 79.267-79.267h96.4c43.708 0 79.267 35.559 79.267 79.267v96.4c0 5.199-2.692 10.027-7.114 12.76-4.427 2.736-9.949 2.98-14.594.657z" fill="#ffdcc8"/><path d="m297.489 301.55 64.267 32.133c4.645 2.322 10.167 2.079 14.594-.657 4.422-2.733 7.114-7.561 7.114-12.76v-96.4c0-43.708-35.559-79.267-79.267-79.267h-48.201v147.204c14.252.001 28.502 3.25 41.493 9.747z" fill="#ffbeb9"/><circle clip-rule="evenodd" cx="207.797" cy="223.867" fill="#283741" fill-rule="evenodd" r="15"/><circle clip-rule="evenodd" cx="304.197" cy="223.867" fill="#0a141e" fill-rule="evenodd" r="15"/><path d="m255.997 422.648c-24.377 0-48.753-5.555-70.974-16.665-22.36-11.182-56.492-35.595-56.492-85.717 0-5.682 3.21-10.875 8.292-13.417l64.267-32.133c34.382-17.194 75.436-17.194 109.818.001l64.265 32.132c5.082 2.541 8.292 7.735 8.292 13.417 0 50.18-34.208 74.572-56.491 85.716-22.222 11.111-46.6 16.666-70.977 16.666z" fill="#f0f5fa"/><path d="m383.464 320.267c0-5.682-3.21-10.875-8.292-13.417l-64.265-32.132c-17.191-8.598-36.051-12.897-54.91-12.896v160.827c24.377 0 48.755-5.555 70.977-16.666 22.282-11.145 56.49-35.536 56.49-85.716z" fill="#dfe3e9"/></g></svg>