<svg id="Capa_1" enable-background="new 0 0 512 512" height="512" viewBox="0 0 512 512" width="512" xmlns="http://www.w3.org/2000/svg"><g><path d="m422 497h-131c-8.284 0-15-6.716-15-15s6.716-15 15-15h131c8.271 0 15-6.729 15-15v-62c0-8.284 6.716-15 15-15s15 6.716 15 15v62c0 24.814-20.187 45-45 45z" fill="#c8eafa"/><path d="m408.735 63.265c-40.797-40.797-95.039-63.265-152.735-63.265s-111.938 22.468-152.735 63.265-63.265 95.039-63.265 152.735v29h45c8.284 0 15-6.716 15-15v-12.635c0-86.532 69.783-157.126 155.559-157.364.147 0 .299-.001.447-.001 41.53 0 80.613 16.177 110.101 45.583 29.594 29.513 45.893 68.726 45.893 110.417v14c0 8.284 6.716 15 15 15h45v-29c0-57.696-22.468-111.938-63.265-152.735z" fill="#5e54ac"/><path d="m256 60c41.532-.001 80.617 16.175 110.106 45.583 29.595 29.513 45.894 68.726 45.894 110.417v14c0 8.284 6.716 15 15 15h45v-29c0-57.696-22.468-111.938-63.265-152.735-40.797-40.797-95.039-63.265-152.735-63.265z" fill="#453d81"/><g><path d="m457 420h-30c-8.284 0-15-6.716-15-15v-175h45c30.376 0 55 24.624 55 55v80c0 30.376-24.624 55-55 55z" fill="#b7457d"/><path d="m0 365v-80c0-30.376 24.624-55 55-55h45v175c0 8.284-6.716 15-15 15h-30c-30.376 0-55-24.624-55-55z" fill="#ff5e82"/><g><path d="m201 482c0 16.569 13.431 30 30 30h50c16.569 0 30-13.431 30-30 0-16.569-13.431-30-30-30h-50c-16.569 0-30 13.431-30 30z" fill="#5e54ac"/></g><path d="m296.002 380c-3.445 0-6.856-1.186-9.605-3.477l-55.828-46.523h-34.569c-19.299 0-35-15.701-35-35v-80c0-19.299 15.701-35 35-35h120c19.299 0 35 15.701 35 35v80c0 19.299-15.701 35-35 35h-5v35c0 5.82-3.367 11.115-8.638 13.584-2.029.95-4.201 1.416-6.36 1.416z" fill="#f2faff"/><path d="m316 180h-60v171.192l30.397 25.331c2.749 2.291 6.16 3.477 9.605 3.477 2.158 0 4.33-.466 6.36-1.416 5.271-2.469 8.638-7.764 8.638-13.584v-35h5c19.299 0 35-15.701 35-35v-80c0-19.299-15.701-35-35-35z" fill="#c8eafa"/><path d="m276 270h-40c-8.284 0-15-6.716-15-15s6.716-15 15-15h40c8.284 0 15 6.716 15 15s-6.716 15-15 15z" fill="#5e54ac"/><g><path d="m276 240h-20v30h20c8.284 0 15-6.716 15-15s-6.716-15-15-15z" fill="#453d81"/></g></g><path d="m281 452h-25v60h25c16.569 0 30-13.432 30-30 0-16.569-13.431-30-30-30z" fill="#453d81"/></g></svg>