<svg id="Layer_1" enable-background="new 0 0 512 512" height="512" viewBox="0 0 512 512" width="512" xmlns="http://www.w3.org/2000/svg"><g><path d="m474.36 304.2c0-26.14-9.41-50.834-26.626-70.214v-42.253c0-105.722-86.011-191.733-191.734-191.733s-191.733 86.011-191.733 191.733v42.253c-17.216 19.379-26.626 44.074-26.626 70.214 0 23.535 7.629 45.899 21.714 64.267-14.085 18.367-21.714 40.731-21.714 64.267 0 28.238 10.98 54.789 30.922 74.776 2.909 2.969 6.8 4.491 10.711 4.491 0-8.284 6.716-15 15-15h323.453c8.284 0 15 6.716 15 15 3.911 0 7.802-1.522 10.711-4.491 19.941-19.987 30.922-46.538 30.922-74.776 0-23.535-7.629-45.899-21.714-64.267 14.085-18.368 21.714-40.732 21.714-64.267z" fill="#ffe100"/><path d="m417.727 497c8.284 0 15 6.716 15 15 3.911 0 7.802-1.522 10.711-4.491 19.941-19.987 30.922-46.538 30.922-74.776 0-23.535-7.629-45.899-21.714-64.267 14.085-18.368 21.714-40.732 21.714-64.267 0-26.14-9.41-50.834-26.626-70.214v-42.253c0-105.721-86.011-191.732-191.734-191.732v497z" fill="#ffb400"/><path d="m143.533 192.8h-31.358c-25.847 0-47.471 20.484-47.902 46.328-.441 26.4 20.827 47.939 47.127 47.939h32.133c8.284 0 15-6.716 15-15v-64.267c0-8.284-6.715-15-15-15z" fill="#ffbeb9"/><path d="m368.467 192.8h31.358c25.847 0 47.471 20.484 47.902 46.328.441 26.4-20.827 47.939-47.127 47.939h-32.133c-8.284 0-15-6.716-15-15v-64.267c0-8.284 6.716-15 15-15z" fill="#ffa0aa"/><path d="m383.467 175.667c0-8.284-6.716-15-15-15h-16.066c-18.307 0-33.2-14.893-33.2-33.2 0-34.849-28.352-63.2-63.216-63.2-34.042 0-66.048 13.257-90.122 37.33-24.072 24.072-37.329 56.078-37.329 90.121l.023 112.472c0 5.199 2.692 10.027 7.114 12.76 4.426 2.736 9.947 2.979 14.594.657l64.266-32.134c25.982-12.99 57.004-12.99 82.984.001l64.267 32.133c4.65 2.325 10.171 2.076 14.594-.657s7.114-7.561 7.114-12.76z" fill="#ffdcc8"/><path d="m256 275.73c14.259-.004 28.518 3.244 41.516 9.743l64.267 32.133c4.65 2.325 10.171 2.076 14.594-.657s7.114-7.561 7.114-12.76l-.023-128.523c0-8.284-6.716-15-15-15h-16.066c-18.307 0-33.2-14.893-33.2-33.2 0-34.843-28.343-63.191-63.2-63.2v211.464z" fill="#ffbeb9"/><path d="m439.442 483.58-128.533-64.267c-4.65-2.325-10.171-2.077-14.594.657-4.422 2.733-7.114 7.561-7.114 12.76 0 18.306-14.894 33.2-33.216 33.2s-33.216-14.894-33.216-33.2c0-5.199-2.692-10.027-7.114-12.76-4.422-2.734-9.944-2.982-14.594-.657l-128.534 64.267c-7.41 3.705-10.413 12.715-6.708 20.125 2.628 5.256 7.926 8.295 13.428 8.295h353.476c5.502 0 10.8-3.039 13.428-8.295 3.704-7.41.7-16.42-6.709-20.125z" fill="#283741"/><path d="m446.15 503.705c3.705-7.41.701-16.419-6.708-20.125l-128.533-64.267c-4.65-2.325-10.171-2.077-14.594.657-4.422 2.733-7.114 7.561-7.114 12.76 0 18.306-14.894 33.2-33.216 33.2v46.07h176.738c5.501 0 10.799-3.039 13.427-8.295z" fill="#0a141e"/><circle clip-rule="evenodd" cx="207.8" cy="207.8" fill="#283741" fill-rule="evenodd" r="15"/><g fill="#0a141e"><circle clip-rule="evenodd" cx="304.2" cy="207.8" fill-rule="evenodd" r="15"/><path d="m432.734 368.467h.01z"/><path d="m432.734 239.933h.01z"/></g><path d="m304.228 353.467h-96.433c-8.284 0-15 6.716-15 15v64.266c0 34.909 28.306 63.191 63.216 63.185 34.91.006 63.216-28.276 63.216-63.185v-64.266c.001-8.284-6.714-15-14.999-15z" fill="#ffbeb9"/><path d="m319.2 432.733v-64.266c0-8.284-6.716-15-15-15h-48.216v142.451c34.91.006 63.216-28.276 63.216-63.185z" fill="#ffa0aa"/><path d="m256 410.844c-18.861 0-37.715-4.297-54.908-12.893-.01-.005-21.159-10.579-21.159-10.579-31.706-15.856-51.4-47.725-51.4-83.171 0-5.682 3.21-10.875 8.292-13.417l64.267-32.134c34.382-17.191 75.435-17.191 109.817-.001l64.267 32.134c5.082 2.541 8.292 7.735 8.292 13.417 0 35.446-19.694 67.315-51.397 83.17l-21.161 10.58c-17.191 8.595-36.053 12.894-54.91 12.894z" fill="#f0f5fa"/><path d="m310.908 397.951 21.161-10.58c31.703-15.855 51.397-47.724 51.397-83.17 0-5.682-3.21-10.875-8.292-13.417l-64.267-32.134c-17.196-8.597-36.06-12.895-54.924-12.892v165.086h.016c18.858 0 37.72-4.299 54.909-12.893z" fill="#dfe3e9"/></g></svg>