<svg id="Layer_1" enable-background="new 0 0 512 512" height="512" viewBox="0 0 512 512" width="512" xmlns="http://www.w3.org/2000/svg"><g><path d="m439.441 483.58-128.533-64.267c-4.65-2.325-10.171-2.077-14.594.657-4.422 2.733-7.114 7.561-7.114 12.76v16.066c0 18.336-14.864 33.2-33.2 33.2s-33.2-14.864-33.2-33.2v-16.066c0-5.199-2.692-10.027-7.114-12.76-4.422-2.734-9.944-2.981-14.594-.657l-128.533 64.267c-7.41 3.705-10.413 12.715-6.708 20.125 2.628 5.256 7.926 8.295 13.428 8.295h353.443c5.502 0 10.8-3.039 13.428-8.295 3.704-7.41.701-16.42-6.709-20.125z" fill="#71d046"/><path d="m439.441 483.58-128.533-64.267c-4.65-2.325-10.171-2.077-14.594.657-4.422 2.733-7.114 7.561-7.114 12.76v16.066c0 18.336-14.864 33.2-33.2 33.2-.005 0-.011 0-.016 0v30.004h176.738c5.502 0 10.8-3.039 13.428-8.295 3.704-7.41.701-16.42-6.709-20.125z" fill="#00a032"/><path d="m400.6 367.4h-289.2c-61.426 0-111.4-49.974-111.4-111.4 0-34.824 15.999-67.073 43.259-88.121-4.398-34.157 7.094-68.273 31.724-92.899 24.62-24.624 58.733-36.117 92.895-31.724 21.043-27.258 53.293-43.256 88.122-43.256s67.079 15.998 88.123 43.256c34.16-4.393 68.274 7.1 92.896 31.726 24.629 24.625 36.121 58.741 31.723 92.897 27.259 21.048 43.258 53.297 43.258 88.121 0 61.426-49.974 111.4-111.4 111.4z" fill="#bc2d64"/><path d="m512 256c0-34.824-15.999-67.073-43.259-88.121 4.398-34.157-7.094-68.273-31.723-92.897-24.622-24.626-58.736-36.118-92.896-31.726-21.043-27.258-53.293-43.256-88.122-43.256v367.4h144.6c61.426 0 111.4-49.974 111.4-111.4z" fill="#780032"/><path d="m400.6 303.133h-32.133c-8.284 0-15-6.716-15-15v-64.267c0-8.284 6.716-15 15-15h32.133c25.989 0 47.133 21.144 47.133 47.133s-21.144 47.134-47.133 47.134z" fill="#c36e64"/><path d="m143.533 303.133h-32.133c-25.989 0-47.133-21.144-47.133-47.133s21.144-47.133 47.133-47.133h32.133c8.284 0 15 6.716 15 15v64.267c0 8.283-6.716 14.999-15 14.999z" fill="#e19682"/><path d="m368.459 160.667c-37.435 0-72.625-14.577-99.092-41.049l-2.77-2.768c-5.856-5.845-15.337-5.845-21.193 0l-2.774 2.771c-26.463 26.468-61.653 41.045-99.096 41.045-8.284 0-15 6.716-15 15v144.6c0 5.199 2.692 10.027 7.114 12.76 4.426 2.736 9.947 2.979 14.594.657l64.266-32.134c25.982-12.99 57.004-12.99 82.984.001l64.267 32.133c4.65 2.325 10.171 2.076 14.594-.657s7.114-7.561 7.114-12.76v-144.6c0-8.284-6.724-14.999-15.008-14.999z" fill="#ffbea0"/><path d="m297.492 301.55 64.267 32.133c4.65 2.325 10.171 2.076 14.594-.657s7.114-7.561 7.114-12.76v-144.6c0-8.284-6.724-15-15.008-15-37.435 0-72.625-14.577-99.092-41.049l-2.77-2.768c-2.928-2.922-6.762-4.384-10.597-4.384v179.34c14.251.002 28.502 3.249 41.492 9.745z" fill="#e19682"/><circle clip-rule="evenodd" cx="207.8" cy="223.867" fill="#283741" fill-rule="evenodd" r="15"/><circle clip-rule="evenodd" cx="304.2" cy="223.867" fill="#0a141e" fill-rule="evenodd" r="15"/><path d="m304.228 369.549h-96.433c-8.284 0-15 6.716-15 15v64.266c0 34.909 28.306 63.191 63.216 63.185 34.91.006 63.216-28.276 63.216-63.185v-64.266c.001-8.284-6.715-15-14.999-15z" fill="#e19682"/><path d="m319.2 448.815v-64.266c0-8.284-6.716-15-15-15h-48.216v142.451c34.91.006 63.216-28.276 63.216-63.185z" fill="#c36e64"/><path d="m256 426.911c-18.861 0-37.715-4.297-54.908-12.893-.01-.005-21.159-10.579-21.159-10.579-31.706-15.856-51.4-47.725-51.4-83.171 0-5.682 3.21-10.875 8.292-13.417l64.267-32.134c34.382-17.191 75.435-17.191 109.817-.001l64.267 32.134c5.082 2.541 8.292 7.735 8.292 13.417 0 35.446-19.694 67.315-51.397 83.17l-21.161 10.58c-17.191 8.595-36.054 12.894-54.91 12.894z" fill="#f0f5fa"/><path d="m310.908 414.018 21.161-10.58c31.703-15.855 51.397-47.724 51.397-83.17 0-5.682-3.21-10.875-8.292-13.417l-64.267-32.134c-17.196-8.597-36.06-12.895-54.924-12.892v165.085h.016c18.857.001 37.72-4.298 54.909-12.892z" fill="#dfe3e9"/></g></svg>