<svg id="Layer_1" enable-background="new 0 0 512 512" height="512" viewBox="0 0 512 512" width="512" xmlns="http://www.w3.org/2000/svg"><g><path d="m512 239.933c0-10.846-2.804-21.673-7.844-30.754 2.316-9.961 2.036-21.064-.912-31.53-.01-.034-.02-.068-.029-.102-3.015-10.42-8.744-20.17-16.145-27.693-.503-10.312-3.853-21-9.618-30.295-5.789-9.332-14.009-17.344-23.2-22.762-3.336-9.829-9.517-19.327-17.591-26.844-8.109-7.623-18.281-13.36-28.728-16.322-5.828-8.682-14.39-16.372-24.338-21.712-9.962-5.349-21.343-8.397-32.154-8.718-8.03-6.976-18.426-12.34-29.455-15.086-11.063-2.773-22.896-2.962-33.458-.631-9.617-4.803-21.111-7.484-32.528-7.484-11.418 0-22.912 2.681-32.528 7.483-10.559-2.331-22.39-2.144-33.435.625-11.047 2.75-21.447 8.116-29.479 15.092-10.811.32-22.192 3.369-32.154 8.717-9.949 5.341-18.51 13.03-24.339 21.712-10.444 2.961-20.608 8.69-28.674 16.273-8.116 7.556-14.305 17.062-17.643 26.893-9.191 5.419-17.412 13.431-23.201 22.763-5.766 9.295-9.116 19.982-9.617 30.294-7.4 7.523-13.13 17.273-16.145 27.693-.01.034-.02.067-.029.102-2.949 10.467-3.229 21.569-.913 31.53-5.04 9.082-7.843 19.908-7.843 30.756s2.803 21.674 7.843 30.754c-2.316 9.961-2.036 21.063.913 31.53.009.034.019.068.029.102 3.015 10.42 8.745 20.17 16.145 27.693.501 10.312 3.851 20.999 9.617 30.294 5.79 9.333 14.01 17.344 23.201 22.763 3.338 9.831 9.527 19.337 17.643 26.893 8.066 7.583 18.23 13.313 28.674 16.273 5.829 8.682 14.39 16.372 24.339 21.712 9.961 5.348 21.343 8.397 32.154 8.717 8.032 6.977 18.431 12.342 29.479 15.092 11.045 2.769 22.876 2.956 33.435.625 9.616 4.803 21.109 7.483 32.528 7.483 11.417 0 22.911-2.681 32.528-7.483 10.562 2.331 22.396 2.142 33.458-.631 11.029-2.746 21.425-8.11 29.455-15.086 10.812-.32 22.192-3.369 32.154-8.718 9.948-5.341 18.51-13.031 24.338-21.712 10.446-2.962 20.618-8.699 28.728-16.322 8.074-7.517 14.255-17.016 17.591-26.844 9.191-5.418 17.411-13.43 23.2-22.762 5.766-9.295 9.115-19.983 9.618-30.295 7.4-7.523 13.13-17.273 16.145-27.693.01-.034.02-.067.029-.102 2.948-10.465 3.229-21.569.912-31.53 5.04-9.08 7.844-19.907 7.844-30.753z" fill="#283741"/><path d="m512 239.933c0-10.846-2.804-21.673-7.844-30.754 2.316-9.961 2.036-21.064-.912-31.53-.01-.034-.02-.068-.029-.102-3.015-10.42-8.744-20.17-16.145-27.693-.503-10.312-3.853-21-9.618-30.295-5.789-9.332-14.009-17.344-23.2-22.762-3.336-9.829-9.517-19.327-17.591-26.844-8.109-7.623-18.281-13.36-28.728-16.322-5.828-8.682-14.39-16.372-24.338-21.712-9.962-5.349-21.343-8.397-32.154-8.718-8.03-6.976-18.426-12.34-29.455-15.086-11.063-2.773-22.896-2.962-33.458-.631-9.617-4.803-21.111-7.484-32.528-7.484v479.866c11.417 0 22.911-2.681 32.528-7.483 10.562 2.331 22.396 2.142 33.458-.631 11.029-2.746 21.425-8.11 29.455-15.086 10.812-.32 22.192-3.369 32.154-8.718 9.948-5.341 18.51-13.031 24.338-21.712 10.446-2.962 20.618-8.699 28.728-16.322 8.074-7.517 14.255-17.016 17.591-26.844 9.191-5.418 17.411-13.43 23.2-22.762 5.766-9.295 9.115-19.983 9.618-30.295 7.4-7.523 13.13-17.273 16.145-27.693.01-.034.02-.067.029-.102 2.948-10.465 3.229-21.569.912-31.53 5.04-9.082 7.844-19.909 7.844-30.755z" fill="#0a141e"/><path d="m144.027 193.838h-31.358c-25.847 0-47.471 20.484-47.902 46.328-.441 26.4 20.827 47.939 47.127 47.939h32.133c8.284 0 15-6.716 15-15v-64.267c0-8.284-6.716-15-15-15z" fill="#82503c"/><path d="m368.961 193.838h31.358c25.847 0 47.471 20.484 47.902 46.328.441 26.4-20.827 47.939-47.127 47.939h-32.133c-8.284 0-15-6.716-15-15v-64.267c0-8.284 6.715-15 15-15z" fill="#50321e"/><path d="m304.2 112.467h-96.4c-43.708 0-79.267 35.559-79.267 79.267v128.532c0 5.199 2.692 10.027 7.114 12.76 4.426 2.736 9.947 2.979 14.594.657l64.266-32.134c25.982-12.99 57.004-12.99 82.984.001l64.267 32.133c4.65 2.325 10.171 2.076 14.594-.657s7.114-7.561 7.114-12.76v-128.533c.001-43.708-35.558-79.266-79.266-79.266z" fill="#b46e5a"/><path d="m304.2 112.467h-48.2v179.339c14.251 0 28.502 3.248 41.492 9.743l64.267 32.133c4.65 2.325 10.171 2.076 14.594-.657s7.114-7.561 7.114-12.76v-128.532c0-43.708-35.559-79.266-79.267-79.266z" fill="#82503c"/><circle clip-rule="evenodd" cx="207.8" cy="223.867" fill="#283741" fill-rule="evenodd" r="15"/><circle clip-rule="evenodd" cx="304.2" cy="223.867" fill="#0a141e" fill-rule="evenodd" r="15"/><path d="m95.333 319.2c-8.284 0-15-6.716-15-15v-32.133c0-8.284 6.716-15 15-15s15 6.716 15 15v32.133c0 8.284-6.715 15-15 15z" fill="#ffe100"/><path d="m416.667 319.2c-8.284 0-15-6.716-15-15v-32.133c0-8.284 6.716-15 15-15s15 6.716 15 15v32.133c0 8.284-6.716 15-15 15z" fill="#ffb400"/><path d="m439.441 483.58-128.533-64.267c-4.65-2.325-10.171-2.077-14.594.657-4.422 2.733-7.114 7.561-7.114 12.76 0 18.306-14.894 33.2-33.216 33.2s-33.216-14.894-33.216-33.2c0-5.199-2.692-10.027-7.114-12.76-4.422-2.734-9.944-2.982-14.594-.657l-128.534 64.267c-7.41 3.705-10.413 12.715-6.708 20.125 2.628 5.256 7.926 8.295 13.428 8.295h353.476c5.502 0 10.8-3.039 13.428-8.295 3.704-7.41.701-16.42-6.709-20.125z" fill="#ff5a96"/><path d="m446.15 503.705c3.705-7.41.701-16.419-6.708-20.125l-128.533-64.267c-4.65-2.325-10.171-2.077-14.594.657-4.422 2.733-7.114 7.561-7.114 12.76 0 18.306-14.894 33.2-33.216 33.2v46.07h176.738c5.501 0 10.799-3.039 13.427-8.295z" fill="#bc2d64"/><path d="m304.244 369.549h-96.433c-8.284 0-15 6.716-15 15v64.266c0 34.909 28.306 63.191 63.216 63.185 34.91.006 63.216-28.276 63.216-63.185v-64.266c.001-8.284-6.715-15-14.999-15z" fill="#82503c"/><path d="m319.216 448.815v-64.266c0-8.284-6.716-15-15-15h-48.216v142.451c34.91.006 63.216-28.276 63.216-63.185z" fill="#50321e"/><path d="m256 426.909c-18.861 0-37.715-4.297-54.908-12.893l-21.159-10.579c-31.706-15.856-51.4-47.725-51.4-83.171 0-5.682 3.21-10.875 8.292-13.417l64.267-32.134c34.382-17.191 75.435-17.191 109.817-.001l64.267 32.134c5.082 2.541 8.292 7.735 8.292 13.417 0 35.446-19.694 67.315-51.397 83.17l-21.161 10.58c-17.191 8.595-36.054 12.894-54.91 12.894z" fill="#f0f5fa"/><path d="m310.908 414.016 21.161-10.58c31.703-15.855 51.397-47.724 51.397-83.17 0-5.682-3.21-10.875-8.292-13.417l-64.267-32.134c-17.196-8.597-36.06-12.895-54.924-12.892v165.086h.016c18.857 0 37.72-4.299 54.909-12.893z" fill="#dfe3e9"/></g></svg>